<svg xmlns="http://www.w3.org/2000/svg" viewBox="0 0 26.95 17.84"><defs><style>.cls-1{fill:#5d4399;}</style></defs><title>compartilhar</title><g id="Camada_2" data-name="Camada 2"><g id="Camada_1-2" data-name="Camada 1"><path class="cls-1" d="M1.39,17.84a1.32,1.32,0,0,1-.71-.2A1.4,1.4,0,0,1,.08,16C4.09,4.53,12.74,4.47,15.47,4.76l.07-3.4a1.38,1.38,0,0,1,2.28-1l8.65,7.45A1.41,1.41,0,0,1,27,8.87a1.37,1.37,0,0,1-.51,1.06l-8.85,7.25a1.36,1.36,0,0,1-1.46.18,1.38,1.38,0,0,1-.8-1.26V13a5.59,5.59,0,0,0,0-.61,15.15,15.15,0,0,0-12.93,5h0A1.36,1.36,0,0,1,1.39,17.84Zm.45-.95h0ZM14.11,6.19C11,6.19,4.89,7.38,1.67,16A16.49,16.49,0,0,1,15.9,11c1,.12.94,1.34.93,2.06v2.86l8.57-7L17,1.63l-.1,3.28a1.36,1.36,0,0,1-.48,1,1.39,1.39,0,0,1-1,.33A11,11,0,0,0,14.11,6.19Z"/></g></g></svg>