<svg xmlns="http://www.w3.org/2000/svg" viewBox="0 0 28.5 28.5"><defs><style>.cls-1{fill:#5d4399;}</style></defs><title>e mail</title><g id="Camada_2" data-name="Camada 2"><g id="Camada_1-2" data-name="Camada 1"><path class="cls-1" d="M24.75,28.5h-21A3.72,3.72,0,0,1,0,24.82V12.49a.74.74,0,0,1,.39-.65.72.72,0,0,1,.76,0L14.25,20l13.11-8a.76.76,0,0,1,.76,0,.78.78,0,0,1,.38.66V24.82A3.72,3.72,0,0,1,24.75,28.5ZM1.5,13.84v11A2.22,2.22,0,0,0,3.75,27h21A2.22,2.22,0,0,0,27,24.82V14L14.64,21.54a.75.75,0,0,1-.79,0Z"/><path class="cls-1" d="M.75,9.91a.76.76,0,0,1-.64-.35.76.76,0,0,1,.24-1L13.85.11a.75.75,0,0,1,.79,0l13.5,8.24a.75.75,0,0,1,.25,1,.76.76,0,0,1-1,.25l-13.11-8L1.15,9.8A.83.83,0,0,1,.75,9.91Z"/><path class="cls-1" d="M22.75,16.47a.76.76,0,0,1-.75-.75V7.63c0-.31-.4-.65-1-.65H7.48c-.58,0-1,.34-1,.65v8a.75.75,0,0,1-1.5,0v-8A2.33,2.33,0,0,1,7.48,5.48H21A2.33,2.33,0,0,1,23.5,7.63v8.09A.76.76,0,0,1,22.75,16.47Z"/><path class="cls-1" d="M18.75,10.5h-9a.75.75,0,0,1,0-1.5h9a.75.75,0,0,1,0,1.5Z"/><path class="cls-1" d="M18.75,13.5h-9a.75.75,0,0,1,0-1.5h9a.75.75,0,0,1,0,1.5Z"/><path class="cls-1" d="M18.75,16.5h-9a.75.75,0,0,1,0-1.5h9a.75.75,0,0,1,0,1.5Z"/></g></g></svg>