<svg xmlns="http://www.w3.org/2000/svg" viewBox="0 0 31.9 27.97"><defs><style>.cls-1{fill:#5d4399;}</style></defs><title>Camera</title><g id="Camada_2" data-name="Camada 2"><g id="Camada_1-2" data-name="Camada 1"><path class="cls-1" d="M27.77,28H4.13A4.13,4.13,0,0,1,0,23.84V8.58A4.13,4.13,0,0,1,4.13,4.45H27.77A4.13,4.13,0,0,1,31.9,8.58V23.84A4.13,4.13,0,0,1,27.77,28ZM4.13,6A2.63,2.63,0,0,0,1.5,8.58V23.84a2.63,2.63,0,0,0,2.63,2.63H27.77a2.63,2.63,0,0,0,2.63-2.63V8.58A2.63,2.63,0,0,0,27.77,6Z"/><path class="cls-1" d="M15.92,23.34a7.13,7.13,0,1,1,7.13-7.13A7.14,7.14,0,0,1,15.92,23.34Zm0-12.76a5.63,5.63,0,1,0,5.63,5.63A5.64,5.64,0,0,0,15.92,10.58Z"/><path class="cls-1" d="M12.78,6a.65.65,0,0,1-.27,0,.74.74,0,0,1-.42-1A2.59,2.59,0,0,0,12.26,4,2.52,2.52,0,0,0,9.75,1.5H7.22A2.51,2.51,0,0,0,4.71,4a2.59,2.59,0,0,0,.12.78.75.75,0,0,1-1.43.46A4,4,0,0,1,7.22,0H9.75a4,4,0,0,1,4,4,3.88,3.88,0,0,1-.28,1.47A.75.75,0,0,1,12.78,6Z"/></g></g></svg>