<svg xmlns="http://www.w3.org/2000/svg" viewBox="0 0 28.5 28.35"><defs><style>.cls-1{fill:#5d4399;}</style></defs><title>sino</title><g id="Camada_2" data-name="Camada 2"><g id="Camada_1-2" data-name="Camada 1"><path class="cls-1" d="M25.91,25.67H2.59A2.36,2.36,0,0,1,0,23.59,2.36,2.36,0,0,1,2.59,21.5H25.91a2.36,2.36,0,0,1,2.59,2.09A2.36,2.36,0,0,1,25.91,25.67ZM2.59,23c-.66,0-1.09.35-1.09.59s.43.58,1.09.58H25.91c.67,0,1.09-.35,1.09-.58S26.58,23,25.91,23Z"/><path class="cls-1" d="M3.77,23A.75.75,0,0,1,3,22.31c0-.17,0-.33,0-.5V12.05C3,7.48,7.55,3.76,13.15,3.76h2.21C21,3.76,25.5,7.48,25.5,12.05v9.76c0,.17,0,.33,0,.5a.76.76,0,0,1-.8.69.75.75,0,0,1-.69-.8c0-.13,0-.26,0-.39V12.05c0-3.74-3.88-6.79-8.64-6.79H13.15c-4.77,0-8.65,3.05-8.65,6.79v9.76c0,.13,0,.26,0,.39a.75.75,0,0,1-.69.8Z"/><path class="cls-1" d="M15.81,5.3a.75.75,0,0,1-.75-.75v-3h-1.5v3a.75.75,0,1,1-1.5,0V.75A.75.75,0,0,1,12.81,0h3a.76.76,0,0,1,.75.75v3.8A.76.76,0,0,1,15.81,5.3Z"/><path class="cls-1" d="M14.25,28.35a2.83,2.83,0,0,1-2.75-2.9.75.75,0,0,1,1.5,0,1.33,1.33,0,0,0,1.25,1.4,1.33,1.33,0,0,0,1.25-1.4.75.75,0,0,1,1.5,0A2.83,2.83,0,0,1,14.25,28.35Z"/></g></g></svg>